<?xml version="1.0" encoding="UTF-8" standalone="no"?>
<!DOCTYPE svg PUBLIC "-//W3C//DTD SVG 1.1//EN"
 "http://www.w3.org/Graphics/SVG/1.1/DTD/svg11.dtd">
<!-- Generated by graphviz version 2.47.0 (20210316.0004)
 -->
<!-- Title: dependencies Pages: 1 -->
<svg width="3611pt" height="284pt"
 viewBox="0.00 0.00 3611.00 284.00" xmlns="http://www.w3.org/2000/svg" xmlns:xlink="http://www.w3.org/1999/xlink">
<g id="graph0" class="graph" transform="scale(1 1) rotate(0) translate(4 280)">
<title>dependencies</title>
<polygon fill="white" stroke="transparent" points="-4,4 -4,-280 3607,-280 3607,4 -4,4"/>
<text text-anchor="start" x="1780.51" y="-42.4" font-family="Times-12" font-weight="bold" font-size="14.00">Legend</text>
<polygon fill="#ffffb3" stroke="transparent" points="1567.5,-10 1567.5,-30 1587.5,-30 1587.5,-10 1567.5,-10"/>
<text text-anchor="start" x="1591.13" y="-15.4" font-family="Times-12" font-size="14.00"> &#160;Declarations</text>
<polygon fill="#8dd3c7" stroke="transparent" points="1680.5,-10 1680.5,-30 1700.5,-30 1700.5,-10 1680.5,-10"/>
<text text-anchor="start" x="1704.23" y="-15.4" font-family="Times-12" font-size="14.00"> &#160;Module</text>
<polygon fill="#80b1d3" stroke="transparent" points="1766.5,-10 1766.5,-30 1786.5,-30 1786.5,-10 1766.5,-10"/>
<text text-anchor="start" x="1790.28" y="-15.4" font-family="Times-12" font-size="14.00"> &#160;Bootstrap</text>
<polygon fill="#fdb462" stroke="transparent" points="1863.5,-10 1863.5,-30 1883.5,-30 1883.5,-10 1863.5,-10"/>
<text text-anchor="start" x="1887.17" y="-15.4" font-family="Times-12" font-size="14.00"> &#160;Providers</text>
<polygon fill="#fb8072" stroke="transparent" points="1959.5,-10 1959.5,-30 1979.5,-30 1979.5,-10 1959.5,-10"/>
<text text-anchor="start" x="1983.23" y="-15.4" font-family="Times-12" font-size="14.00"> &#160;Exports</text>
<g id="clust1" class="cluster">
<title>cluster_AppModule</title>
<polygon fill="none" stroke="black" stroke-dasharray="1,5" points="8,-70 8,-268 3595,-268 3595,-70 8,-70"/>
</g>
<g id="clust2" class="cluster">
<title>cluster_AppModule_declarations</title>
<polygon fill="none" stroke="black" points="168,-78 168,-130 3587,-130 3587,-78 168,-78"/>
</g>
<g id="clust24" class="cluster">
<title>cluster_AppModule_imports</title>
<polygon fill="none" stroke="black" points="16,-78 16,-130 160,-130 160,-78 16,-78"/>
</g>
<g id="clust26" class="cluster">
<title>cluster_AppModule_bootstrap</title>
<polygon fill="none" stroke="black" points="1694,-208 1694,-260 1818,-260 1818,-208 1694,-208"/>
</g>
<!-- ActualizarExamenComponent -->
<g id="node1" class="node">
<title>ActualizarExamenComponent</title>
<polygon fill="#ffffb3" stroke="black" points="3578.5,-122 3393.5,-122 3393.5,-86 3578.5,-86 3578.5,-122"/>
<text text-anchor="middle" x="3486" y="-99.8" font-family="Times,serif" font-size="14.00">ActualizarExamenComponent</text>
</g>
<!-- AppModule -->
<g id="node22" class="node">
<title>AppModule</title>
<polygon fill="#8dd3c7" stroke="black" points="1797.66,-187 1794.66,-191 1773.66,-191 1770.66,-187 1714.34,-187 1714.34,-151 1797.66,-151 1797.66,-187"/>
<text text-anchor="middle" x="1756" y="-164.8" font-family="Times,serif" font-size="14.00">AppModule</text>
</g>
<!-- ActualizarExamenComponent&#45;&gt;AppModule -->
<g id="edge1" class="edge">
<title>ActualizarExamenComponent&#45;&gt;AppModule</title>
<path fill="none" stroke="black" d="M3486,-122.15C3486,-145.76 3486,-184 3486,-184 3486,-184 1807.91,-184 1807.91,-184"/>
<polygon fill="black" stroke="black" points="1807.91,-180.5 1797.91,-184 1807.91,-187.5 1807.91,-180.5"/>
</g>
<!-- ActualizarPreguntaComponent -->
<g id="node2" class="node">
<title>ActualizarPreguntaComponent</title>
<polygon fill="#ffffb3" stroke="black" points="3375.89,-122 3186.11,-122 3186.11,-86 3375.89,-86 3375.89,-122"/>
<text text-anchor="middle" x="3281" y="-99.8" font-family="Times,serif" font-size="14.00">ActualizarPreguntaComponent</text>
</g>
<!-- ActualizarPreguntaComponent&#45;&gt;AppModule -->
<g id="edge2" class="edge">
<title>ActualizarPreguntaComponent&#45;&gt;AppModule</title>
<path fill="none" stroke="black" d="M3281,-122.25C3281,-145.02 3281,-181 3281,-181 3281,-181 1807.98,-181 1807.98,-181"/>
<polygon fill="black" stroke="black" points="1807.98,-177.5 1797.98,-181 1807.98,-184.5 1807.98,-177.5"/>
</g>
<!-- AddCategoriaComponent -->
<g id="node3" class="node">
<title>AddCategoriaComponent</title>
<polygon fill="#ffffb3" stroke="black" points="3167.86,-122 3008.14,-122 3008.14,-86 3167.86,-86 3167.86,-122"/>
<text text-anchor="middle" x="3088" y="-99.8" font-family="Times,serif" font-size="14.00">AddCategoriaComponent</text>
</g>
<!-- AddCategoriaComponent&#45;&gt;AppModule -->
<g id="edge3" class="edge">
<title>AddCategoriaComponent&#45;&gt;AppModule</title>
<path fill="none" stroke="black" d="M3088,-122.29C3088,-144.21 3088,-178 3088,-178 3088,-178 1807.69,-178 1807.69,-178"/>
<polygon fill="black" stroke="black" points="1807.69,-174.5 1797.69,-178 1807.69,-181.5 1807.69,-174.5"/>
</g>
<!-- AddExamenComponent -->
<g id="node4" class="node">
<title>AddExamenComponent</title>
<polygon fill="#ffffb3" stroke="black" points="2989.81,-122 2838.19,-122 2838.19,-86 2989.81,-86 2989.81,-122"/>
<text text-anchor="middle" x="2914" y="-99.8" font-family="Times,serif" font-size="14.00">AddExamenComponent</text>
</g>
<!-- AddExamenComponent&#45;&gt;AppModule -->
<g id="edge4" class="edge">
<title>AddExamenComponent&#45;&gt;AppModule</title>
<path fill="none" stroke="black" d="M2914,-122.03C2914,-142.77 2914,-174 2914,-174 2914,-174 1807.9,-174 1807.9,-174"/>
<polygon fill="black" stroke="black" points="1807.9,-170.5 1797.9,-174 1807.9,-177.5 1807.9,-170.5"/>
</g>
<!-- AddPreguntaComponent -->
<g id="node5" class="node">
<title>AddPreguntaComponent</title>
<polygon fill="#ffffb3" stroke="black" points="2820.7,-122 2665.3,-122 2665.3,-86 2820.7,-86 2820.7,-122"/>
<text text-anchor="middle" x="2743" y="-99.8" font-family="Times,serif" font-size="14.00">AddPreguntaComponent</text>
</g>
<!-- AddPreguntaComponent&#45;&gt;AppModule -->
<g id="edge5" class="edge">
<title>AddPreguntaComponent&#45;&gt;AppModule</title>
<path fill="none" stroke="black" d="M2743,-122.31C2743,-142.15 2743,-171 2743,-171 2743,-171 1807.78,-171 1807.78,-171"/>
<polygon fill="black" stroke="black" points="1807.78,-167.5 1797.78,-171 1807.78,-174.5 1807.78,-167.5"/>
</g>
<!-- AppComponent -->
<g id="node6" class="node">
<title>AppComponent</title>
<polygon fill="#ffffb3" stroke="black" points="2647.94,-122 2542.06,-122 2542.06,-86 2647.94,-86 2647.94,-122"/>
<text text-anchor="middle" x="2595" y="-99.8" font-family="Times,serif" font-size="14.00">AppComponent</text>
</g>
<!-- AppComponent&#45;&gt;AppModule -->
<g id="edge6" class="edge">
<title>AppComponent&#45;&gt;AppModule</title>
<path fill="none" stroke="black" d="M2595,-122.17C2595,-141.09 2595,-168 2595,-168 2595,-168 1807.89,-168 1807.89,-168"/>
<polygon fill="black" stroke="black" points="1807.89,-164.5 1797.89,-168 1807.89,-171.5 1807.89,-164.5"/>
</g>
<!-- DashboardComponent -->
<g id="node7" class="node">
<title>DashboardComponent</title>
<polygon fill="#ffffb3" stroke="black" points="2523.97,-122 2382.03,-122 2382.03,-86 2523.97,-86 2523.97,-122"/>
<text text-anchor="middle" x="2453" y="-99.8" font-family="Times,serif" font-size="14.00">DashboardComponent</text>
</g>
<!-- DashboardComponent&#45;&gt;AppModule -->
<g id="edge7" class="edge">
<title>DashboardComponent&#45;&gt;AppModule</title>
<path fill="none" stroke="black" d="M2453,-122.3C2453,-140.27 2453,-165 2453,-165 2453,-165 1807.77,-165 1807.77,-165"/>
<polygon fill="black" stroke="black" points="1807.77,-161.5 1797.77,-165 1807.77,-168.5 1807.77,-161.5"/>
</g>
<!-- HomeComponent -->
<g id="node8" class="node">
<title>HomeComponent</title>
<polygon fill="#ffffb3" stroke="black" points="2363.55,-122 2248.45,-122 2248.45,-86 2363.55,-86 2363.55,-122"/>
<text text-anchor="middle" x="2306" y="-99.8" font-family="Times,serif" font-size="14.00">HomeComponent</text>
</g>
<!-- HomeComponent&#45;&gt;AppModule -->
<g id="edge8" class="edge">
<title>HomeComponent&#45;&gt;AppModule</title>
<path fill="none" stroke="black" d="M2306,-122.04C2306,-138.73 2306,-161 2306,-161 2306,-161 1807.79,-161 1807.79,-161"/>
<polygon fill="black" stroke="black" points="1807.79,-157.5 1797.79,-161 1807.79,-164.5 1807.79,-157.5"/>
</g>
<!-- InstruccionesComponent -->
<g id="node9" class="node">
<title>InstruccionesComponent</title>
<polygon fill="#ffffb3" stroke="black" points="2229.97,-122 2074.03,-122 2074.03,-86 2229.97,-86 2229.97,-122"/>
<text text-anchor="middle" x="2152" y="-99.8" font-family="Times,serif" font-size="14.00">InstruccionesComponent</text>
</g>
<!-- InstruccionesComponent&#45;&gt;AppModule -->
<g id="edge9" class="edge">
<title>InstruccionesComponent&#45;&gt;AppModule</title>
<path fill="none" stroke="black" d="M2152,-122.28C2152,-137.95 2152,-158 2152,-158 2152,-158 1808,-158 1808,-158"/>
<polygon fill="black" stroke="black" points="1808,-154.5 1798,-158 1808,-161.5 1808,-154.5"/>
</g>
<!-- LoadExamenComponent -->
<g id="node10" class="node">
<title>LoadExamenComponent</title>
<polygon fill="#ffffb3" stroke="black" points="2055.97,-122 1900.03,-122 1900.03,-86 2055.97,-86 2055.97,-122"/>
<text text-anchor="middle" x="1978" y="-99.8" font-family="Times,serif" font-size="14.00">LoadExamenComponent</text>
</g>
<!-- LoadExamenComponent&#45;&gt;AppModule -->
<g id="edge10" class="edge">
<title>LoadExamenComponent&#45;&gt;AppModule</title>
<path fill="none" stroke="black" d="M1978,-122.12C1978,-136.78 1978,-155 1978,-155 1978,-155 1807.76,-155 1807.76,-155"/>
<polygon fill="black" stroke="black" points="1807.76,-151.5 1797.76,-155 1807.76,-158.5 1807.76,-151.5"/>
</g>
<!-- LoginComponent -->
<g id="node11" class="node">
<title>LoginComponent</title>
<polygon fill="#ffffb3" stroke="black" points="1882.28,-122 1767.72,-122 1767.72,-86 1882.28,-86 1882.28,-122"/>
<text text-anchor="middle" x="1825" y="-99.8" font-family="Times,serif" font-size="14.00">LoginComponent</text>
</g>
<!-- LoginComponent&#45;&gt;AppModule -->
<g id="edge11" class="edge">
<title>LoginComponent&#45;&gt;AppModule</title>
<path fill="none" stroke="black" d="M1782.72,-122.11C1782.72,-122.11 1782.72,-140.99 1782.72,-140.99"/>
<polygon fill="black" stroke="black" points="1779.22,-140.99 1782.72,-150.99 1786.22,-140.99 1779.22,-140.99"/>
</g>
<!-- NavbarComponent -->
<g id="node12" class="node">
<title>NavbarComponent</title>
<polygon fill="#ffffb3" stroke="black" points="1749.03,-122 1626.97,-122 1626.97,-86 1749.03,-86 1749.03,-122"/>
<text text-anchor="middle" x="1688" y="-99.8" font-family="Times,serif" font-size="14.00">NavbarComponent</text>
</g>
<!-- NavbarComponent&#45;&gt;AppModule -->
<g id="edge12" class="edge">
<title>NavbarComponent&#45;&gt;AppModule</title>
<path fill="none" stroke="black" d="M1731.72,-122.11C1731.72,-122.11 1731.72,-140.99 1731.72,-140.99"/>
<polygon fill="black" stroke="black" points="1728.22,-140.99 1731.72,-150.99 1735.22,-140.99 1728.22,-140.99"/>
</g>
<!-- ProfileComponent -->
<g id="node13" class="node">
<title>ProfileComponent</title>
<polygon fill="#ffffb3" stroke="black" points="1608.93,-122 1489.07,-122 1489.07,-86 1608.93,-86 1608.93,-122"/>
<text text-anchor="middle" x="1549" y="-99.8" font-family="Times,serif" font-size="14.00">ProfileComponent</text>
</g>
<!-- ProfileComponent&#45;&gt;AppModule -->
<g id="edge13" class="edge">
<title>ProfileComponent&#45;&gt;AppModule</title>
<path fill="none" stroke="black" d="M1549,-122.12C1549,-136.78 1549,-155 1549,-155 1549,-155 1704.11,-155 1704.11,-155"/>
<polygon fill="black" stroke="black" points="1704.11,-158.5 1714.11,-155 1704.11,-151.5 1704.11,-158.5"/>
</g>
<!-- SignupComponent -->
<g id="node14" class="node">
<title>SignupComponent</title>
<polygon fill="#ffffb3" stroke="black" points="1471.51,-122 1350.49,-122 1350.49,-86 1471.51,-86 1471.51,-122"/>
<text text-anchor="middle" x="1411" y="-99.8" font-family="Times,serif" font-size="14.00">SignupComponent</text>
</g>
<!-- SignupComponent&#45;&gt;AppModule -->
<g id="edge14" class="edge">
<title>SignupComponent&#45;&gt;AppModule</title>
<path fill="none" stroke="black" d="M1411,-122.28C1411,-137.95 1411,-158 1411,-158 1411,-158 1704.04,-158 1704.04,-158"/>
<polygon fill="black" stroke="black" points="1704.04,-161.5 1714.04,-158 1704.04,-154.5 1704.04,-161.5"/>
</g>
<!-- StartComponent -->
<g id="node15" class="node">
<title>StartComponent</title>
<polygon fill="#ffffb3" stroke="black" points="1332.77,-122 1225.23,-122 1225.23,-86 1332.77,-86 1332.77,-122"/>
<text text-anchor="middle" x="1279" y="-99.8" font-family="Times,serif" font-size="14.00">StartComponent</text>
</g>
<!-- StartComponent&#45;&gt;AppModule -->
<g id="edge15" class="edge">
<title>StartComponent&#45;&gt;AppModule</title>
<path fill="none" stroke="black" d="M1279,-122.04C1279,-138.73 1279,-161 1279,-161 1279,-161 1704.09,-161 1704.09,-161"/>
<polygon fill="black" stroke="black" points="1704.09,-164.5 1714.09,-161 1704.09,-157.5 1704.09,-164.5"/>
</g>
<!-- UserDashboardComponent -->
<g id="node16" class="node">
<title>UserDashboardComponent</title>
<polygon fill="#ffffb3" stroke="black" points="1207.4,-122 1038.6,-122 1038.6,-86 1207.4,-86 1207.4,-122"/>
<text text-anchor="middle" x="1123" y="-99.8" font-family="Times,serif" font-size="14.00">UserDashboardComponent</text>
</g>
<!-- UserDashboardComponent&#45;&gt;AppModule -->
<g id="edge16" class="edge">
<title>UserDashboardComponent&#45;&gt;AppModule</title>
<path fill="none" stroke="black" d="M1123,-122.3C1123,-140.27 1123,-165 1123,-165 1123,-165 1703.98,-165 1703.98,-165"/>
<polygon fill="black" stroke="black" points="1703.98,-168.5 1713.98,-165 1703.98,-161.5 1703.98,-168.5"/>
</g>
<!-- UserSidebar -->
<g id="node17" class="node">
<title>UserSidebar</title>
<polygon fill="#ffffb3" stroke="black" points="1020.69,-122 935.31,-122 935.31,-86 1020.69,-86 1020.69,-122"/>
<text text-anchor="middle" x="978" y="-99.8" font-family="Times,serif" font-size="14.00">UserSidebar</text>
</g>
<!-- UserSidebar&#45;&gt;AppModule -->
<g id="edge17" class="edge">
<title>UserSidebar&#45;&gt;AppModule</title>
<path fill="none" stroke="black" d="M978,-122.17C978,-141.09 978,-168 978,-168 978,-168 1704.17,-168 1704.17,-168"/>
<polygon fill="black" stroke="black" points="1704.17,-171.5 1714.17,-168 1704.17,-164.5 1704.17,-171.5"/>
</g>
<!-- ViewCategoriasComponent -->
<g id="node18" class="node">
<title>ViewCategoriasComponent</title>
<polygon fill="#ffffb3" stroke="black" points="917.52,-122 746.48,-122 746.48,-86 917.52,-86 917.52,-122"/>
<text text-anchor="middle" x="832" y="-99.8" font-family="Times,serif" font-size="14.00">ViewCategoriasComponent</text>
</g>
<!-- ViewCategoriasComponent&#45;&gt;AppModule -->
<g id="edge18" class="edge">
<title>ViewCategoriasComponent&#45;&gt;AppModule</title>
<path fill="none" stroke="black" d="M832,-122.31C832,-142.15 832,-171 832,-171 832,-171 1704.2,-171 1704.2,-171"/>
<polygon fill="black" stroke="black" points="1704.2,-174.5 1714.2,-171 1704.2,-167.5 1704.2,-174.5"/>
</g>
<!-- ViewExamenPreguntasComponent -->
<g id="node19" class="node">
<title>ViewExamenPreguntasComponent</title>
<polygon fill="#ffffb3" stroke="black" points="728.23,-122 515.77,-122 515.77,-86 728.23,-86 728.23,-122"/>
<text text-anchor="middle" x="622" y="-99.8" font-family="Times,serif" font-size="14.00">ViewExamenPreguntasComponent</text>
</g>
<!-- ViewExamenPreguntasComponent&#45;&gt;AppModule -->
<g id="edge19" class="edge">
<title>ViewExamenPreguntasComponent&#45;&gt;AppModule</title>
<path fill="none" stroke="black" d="M622,-122.03C622,-142.77 622,-174 622,-174 622,-174 1704.3,-174 1704.3,-174"/>
<polygon fill="black" stroke="black" points="1704.3,-177.5 1714.3,-174 1704.3,-170.5 1704.3,-177.5"/>
</g>
<!-- ViewExamenesComponent -->
<g id="node20" class="node">
<title>ViewExamenesComponent</title>
<polygon fill="#ffffb3" stroke="black" points="497.68,-122 328.32,-122 328.32,-86 497.68,-86 497.68,-122"/>
<text text-anchor="middle" x="413" y="-99.8" font-family="Times,serif" font-size="14.00">ViewExamenesComponent</text>
</g>
<!-- ViewExamenesComponent&#45;&gt;AppModule -->
<g id="edge20" class="edge">
<title>ViewExamenesComponent&#45;&gt;AppModule</title>
<path fill="none" stroke="black" d="M413,-122.29C413,-144.21 413,-178 413,-178 413,-178 1704.33,-178 1704.33,-178"/>
<polygon fill="black" stroke="black" points="1704.33,-181.5 1714.33,-178 1704.33,-174.5 1704.33,-181.5"/>
</g>
<!-- WelcomeComponent -->
<g id="node21" class="node">
<title>WelcomeComponent</title>
<polygon fill="#ffffb3" stroke="black" points="310.47,-122 175.53,-122 175.53,-86 310.47,-86 310.47,-122"/>
<text text-anchor="middle" x="243" y="-99.8" font-family="Times,serif" font-size="14.00">WelcomeComponent</text>
</g>
<!-- WelcomeComponent&#45;&gt;AppModule -->
<g id="edge21" class="edge">
<title>WelcomeComponent&#45;&gt;AppModule</title>
<path fill="none" stroke="black" d="M243,-122.25C243,-145.02 243,-181 243,-181 243,-181 1703.95,-181 1703.95,-181"/>
<polygon fill="black" stroke="black" points="1703.95,-184.5 1713.95,-181 1703.95,-177.5 1703.95,-184.5"/>
</g>
<!-- AppComponent  -->
<g id="node24" class="node">
<title>AppComponent </title>
<polygon fill="#80b1d3" stroke="black" points="1810.44,-252 1701.56,-252 1701.56,-216 1810.44,-216 1810.44,-252"/>
<text text-anchor="middle" x="1756" y="-229.8" font-family="Times,serif" font-size="14.00">AppComponent </text>
</g>
<!-- AppModule&#45;&gt;AppComponent  -->
<g id="edge23" class="edge">
<title>AppModule&#45;&gt;AppComponent </title>
<path fill="none" stroke="black" stroke-dasharray="1,5" d="M1756,-187.11C1756,-187.11 1756,-205.99 1756,-205.99"/>
<polygon fill="black" stroke="black" points="1752.5,-205.99 1756,-215.99 1759.5,-205.99 1752.5,-205.99"/>
</g>
<!-- AppRoutingModule -->
<g id="node23" class="node">
<title>AppRoutingModule</title>
<polygon fill="#8dd3c7" stroke="black" points="152.27,-122 149.27,-126 128.27,-126 125.27,-122 23.73,-122 23.73,-86 152.27,-86 152.27,-122"/>
<text text-anchor="middle" x="88" y="-99.8" font-family="Times,serif" font-size="14.00">AppRoutingModule</text>
</g>
<!-- AppRoutingModule&#45;&gt;AppModule -->
<g id="edge22" class="edge">
<title>AppRoutingModule&#45;&gt;AppModule</title>
<path fill="none" stroke="black" d="M88,-122.15C88,-145.76 88,-184 88,-184 88,-184 1703.93,-184 1703.93,-184"/>
<polygon fill="black" stroke="black" points="1703.93,-187.5 1713.93,-184 1703.93,-180.5 1703.93,-187.5"/>
</g>
</g>
</svg>
